<?xml version="1.0" standalone="no"?>
<!DOCTYPE svg PUBLIC "-//W3C//DTD SVG 20010904//EN"
 "http://www.w3.org/TR/2001/REC-SVG-20010904/DTD/svg10.dtd">
<svg version="1.0" xmlns="http://www.w3.org/2000/svg"
 width="509.000000pt" height="509.000000pt" viewBox="0 0 509.000000 509.000000"
 preserveAspectRatio="xMidYMid meet">
<metadata>
Created by potrace 1.11, written by Peter Selinger 2001-2013
</metadata>
<g transform="translate(0.000000,509.000000) scale(0.100000,-0.100000)"
fill="#000000" stroke="none">
<path d="M2340 5084 c-372 -43 -628 -114 -915 -254 -246 -120 -448 -264 -654
-465 -345 -337 -580 -741 -694 -1200 -58 -235 -72 -348 -72 -620 0 -272 14
-385 72 -620 114 -459 349 -863 694 -1200 333 -324 714 -538 1155 -648 233
-58 348 -72 619 -72 271 0 386 14 619 72 906 226 1623 943 1849 1848 58 235
72 348 72 620 0 272 -14 385 -72 620 -85 341 -241 661 -461 945 -91 117 -287
316 -407 413 -353 285 -781 473 -1235 542 -100 16 -490 28 -570 19z m1194
-1420 c69 -67 126 -125 126 -130 0 -5 -267 -273 -594 -596 l-594 -588 -133
130 -134 130 595 590 c327 324 598 589 601 587 4 -1 63 -56 133 -123z m1071
-4 l130 -130 -50 -49 c-28 -27 -535 -529 -1129 -1115 -593 -586 -1081 -1066
-1085 -1066 -3 0 -242 234 -531 519 l-525 519 135 130 135 129 389 -383 c213
-211 392 -384 397 -384 5 0 455 441 999 980 545 539 994 980 998 980 4 0 66
-59 137 -130z m-3213 -1830 l278 -275 -58 -58 c-31 -32 -92 -90 -135 -129
l-77 -70 -526 518 -525 518 133 133 133 133 250 -247 c137 -137 375 -372 527
-523z"/>
</g>
</svg>
